<mxfile host="app.diagrams.net" modified="2023-07-30T23:25:42.010Z" agent="Mozilla/5.0 (Windows NT 10.0; Win64; x64) AppleWebKit/537.36 (KHTML, like Gecko) Chrome/115.0.0.0 Safari/537.36" etag="baA-o_8RoNxPdfNC5F6p" version="21.6.6" type="github">
  <diagram name="Page-1" id="bSNVSnPbmiO-erVQ_fnm">
    <mxGraphModel dx="1434" dy="758" grid="1" gridSize="10" guides="1" tooltips="1" connect="1" arrows="1" fold="1" page="1" pageScale="1" pageWidth="1169" pageHeight="827" math="0" shadow="0">
      <root>
        <mxCell id="0" />
        <mxCell id="1" parent="0" />
        <mxCell id="I7w05RQVCzzFB9EwpAkA-1" value="PRODUTOS" style="swimlane;whiteSpace=wrap;html=1;startSize=30;" vertex="1" parent="1">
          <mxGeometry x="580" y="160" width="200" height="160" as="geometry">
            <mxRectangle x="530" y="90" width="100" height="30" as="alternateBounds" />
          </mxGeometry>
        </mxCell>
        <mxCell id="I7w05RQVCzzFB9EwpAkA-6" value="CODIGO&lt;br&gt;CODIGO TIPO&lt;br&gt;DESCRICAO GENERICA&lt;br&gt;DESCRICAO ESPECIFICA&lt;br&gt;ESTOQUE MINIMO&lt;br&gt;ESTOQUE MAXIMO&lt;br&gt;QUANTIDADE ESTOQUE" style="text;html=1;strokeColor=none;fillColor=none;align=center;verticalAlign=middle;whiteSpace=wrap;rounded=0;" vertex="1" parent="I7w05RQVCzzFB9EwpAkA-1">
          <mxGeometry y="30" width="200" height="130" as="geometry" />
        </mxCell>
        <mxCell id="I7w05RQVCzzFB9EwpAkA-7" value="TIPOS PRODUTO" style="swimlane;whiteSpace=wrap;html=1;startSize=30;container=0;" vertex="1" parent="1">
          <mxGeometry x="620" y="20" width="160" height="120" as="geometry" />
        </mxCell>
        <mxCell id="I7w05RQVCzzFB9EwpAkA-8" value="CODIGO&lt;br&gt;DESCRICAO" style="text;html=1;strokeColor=none;fillColor=none;align=center;verticalAlign=middle;whiteSpace=wrap;rounded=0;container=0;" vertex="1" parent="I7w05RQVCzzFB9EwpAkA-7">
          <mxGeometry y="30" width="160" height="90" as="geometry" />
        </mxCell>
        <mxCell id="I7w05RQVCzzFB9EwpAkA-31" style="edgeStyle=orthogonalEdgeStyle;rounded=0;orthogonalLoop=1;jettySize=auto;html=1;exitX=0.5;exitY=0.5;exitDx=0;exitDy=0;exitPerimeter=0;entryX=0;entryY=0.5;entryDx=0;entryDy=0;" edge="1" parent="1" source="I7w05RQVCzzFB9EwpAkA-9" target="I7w05RQVCzzFB9EwpAkA-13">
          <mxGeometry relative="1" as="geometry" />
        </mxCell>
        <mxCell id="I7w05RQVCzzFB9EwpAkA-32" style="edgeStyle=orthogonalEdgeStyle;rounded=0;orthogonalLoop=1;jettySize=auto;html=1;exitX=0.5;exitY=0.5;exitDx=0;exitDy=0;exitPerimeter=0;entryX=0;entryY=0.5;entryDx=0;entryDy=0;" edge="1" parent="1" source="I7w05RQVCzzFB9EwpAkA-9" target="I7w05RQVCzzFB9EwpAkA-14">
          <mxGeometry relative="1" as="geometry" />
        </mxCell>
        <mxCell id="I7w05RQVCzzFB9EwpAkA-33" style="edgeStyle=orthogonalEdgeStyle;rounded=0;orthogonalLoop=1;jettySize=auto;html=1;exitX=0.5;exitY=0.5;exitDx=0;exitDy=0;exitPerimeter=0;entryX=0;entryY=0.5;entryDx=0;entryDy=0;" edge="1" parent="1" source="I7w05RQVCzzFB9EwpAkA-9" target="I7w05RQVCzzFB9EwpAkA-15">
          <mxGeometry relative="1" as="geometry" />
        </mxCell>
        <mxCell id="I7w05RQVCzzFB9EwpAkA-9" value="USER" style="shape=umlActor;verticalLabelPosition=bottom;verticalAlign=top;html=1;outlineConnect=0;" vertex="1" parent="1">
          <mxGeometry x="20" y="130" width="30" height="60" as="geometry" />
        </mxCell>
        <mxCell id="I7w05RQVCzzFB9EwpAkA-39" style="edgeStyle=orthogonalEdgeStyle;rounded=0;orthogonalLoop=1;jettySize=auto;html=1;exitX=1;exitY=0.5;exitDx=0;exitDy=0;entryX=0;entryY=0.5;entryDx=0;entryDy=0;" edge="1" parent="1" source="I7w05RQVCzzFB9EwpAkA-13" target="I7w05RQVCzzFB9EwpAkA-8">
          <mxGeometry relative="1" as="geometry">
            <Array as="points">
              <mxPoint x="560" y="40" />
              <mxPoint x="560" y="95" />
            </Array>
          </mxGeometry>
        </mxCell>
        <mxCell id="I7w05RQVCzzFB9EwpAkA-40" style="edgeStyle=orthogonalEdgeStyle;rounded=0;orthogonalLoop=1;jettySize=auto;html=1;exitX=1;exitY=0.5;exitDx=0;exitDy=0;entryX=0;entryY=0.5;entryDx=0;entryDy=0;" edge="1" parent="1" source="I7w05RQVCzzFB9EwpAkA-13" target="I7w05RQVCzzFB9EwpAkA-6">
          <mxGeometry relative="1" as="geometry">
            <Array as="points">
              <mxPoint x="520" y="40" />
              <mxPoint x="520" y="255" />
            </Array>
          </mxGeometry>
        </mxCell>
        <mxCell id="I7w05RQVCzzFB9EwpAkA-13" value="CADASTRAR TIPO PRODUTO" style="rounded=1;whiteSpace=wrap;html=1;" vertex="1" parent="1">
          <mxGeometry x="220" y="20" width="200" height="40" as="geometry" />
        </mxCell>
        <mxCell id="I7w05RQVCzzFB9EwpAkA-42" style="edgeStyle=orthogonalEdgeStyle;rounded=0;orthogonalLoop=1;jettySize=auto;html=1;exitX=1;exitY=0.5;exitDx=0;exitDy=0;entryX=0;entryY=0.5;entryDx=0;entryDy=0;" edge="1" parent="1" source="I7w05RQVCzzFB9EwpAkA-14" target="I7w05RQVCzzFB9EwpAkA-6">
          <mxGeometry relative="1" as="geometry">
            <Array as="points">
              <mxPoint x="480" y="160" />
              <mxPoint x="480" y="255" />
            </Array>
          </mxGeometry>
        </mxCell>
        <mxCell id="I7w05RQVCzzFB9EwpAkA-14" value="CADASTRO PRODUTO" style="rounded=1;whiteSpace=wrap;html=1;" vertex="1" parent="1">
          <mxGeometry x="220" y="140" width="200" height="40" as="geometry" />
        </mxCell>
        <mxCell id="I7w05RQVCzzFB9EwpAkA-43" style="edgeStyle=orthogonalEdgeStyle;rounded=0;orthogonalLoop=1;jettySize=auto;html=1;exitX=1;exitY=0.5;exitDx=0;exitDy=0;entryX=0;entryY=0.5;entryDx=0;entryDy=0;" edge="1" parent="1" source="I7w05RQVCzzFB9EwpAkA-15" target="I7w05RQVCzzFB9EwpAkA-6">
          <mxGeometry relative="1" as="geometry">
            <Array as="points">
              <mxPoint x="480" y="280" />
              <mxPoint x="480" y="255" />
            </Array>
          </mxGeometry>
        </mxCell>
        <mxCell id="I7w05RQVCzzFB9EwpAkA-15" value="ALTERAR QUANTIDADE ESTOQUE" style="rounded=1;whiteSpace=wrap;html=1;" vertex="1" parent="1">
          <mxGeometry x="220" y="260" width="200" height="40" as="geometry" />
        </mxCell>
        <mxCell id="I7w05RQVCzzFB9EwpAkA-44" value="FRONTEND" style="swimlane;whiteSpace=wrap;html=1;startSize=23;" vertex="1" parent="1">
          <mxGeometry x="20" y="340" width="400" height="470" as="geometry" />
        </mxCell>
        <mxCell id="I7w05RQVCzzFB9EwpAkA-52" value="CADASTRO TIPO PRODUTO" style="swimlane;whiteSpace=wrap;html=1;startSize=30;container=0;" vertex="1" parent="I7w05RQVCzzFB9EwpAkA-44">
          <mxGeometry x="200" y="40" width="180" height="80" as="geometry" />
        </mxCell>
        <mxCell id="I7w05RQVCzzFB9EwpAkA-53" value="CODIGO&lt;br&gt;DESCRICAO" style="text;html=1;strokeColor=none;fillColor=none;align=center;verticalAlign=middle;whiteSpace=wrap;rounded=0;container=0;" vertex="1" parent="I7w05RQVCzzFB9EwpAkA-52">
          <mxGeometry y="30" width="180" height="50" as="geometry" />
        </mxCell>
        <mxCell id="I7w05RQVCzzFB9EwpAkA-55" style="edgeStyle=orthogonalEdgeStyle;rounded=0;orthogonalLoop=1;jettySize=auto;html=1;exitX=1;exitY=0.5;exitDx=0;exitDy=0;entryX=0;entryY=0.5;entryDx=0;entryDy=0;" edge="1" parent="I7w05RQVCzzFB9EwpAkA-44" source="I7w05RQVCzzFB9EwpAkA-54" target="I7w05RQVCzzFB9EwpAkA-53">
          <mxGeometry relative="1" as="geometry" />
        </mxCell>
        <mxCell id="I7w05RQVCzzFB9EwpAkA-54" value="CADASTRAR TIPO PRODUTO" style="rounded=1;whiteSpace=wrap;html=1;" vertex="1" parent="I7w05RQVCzzFB9EwpAkA-44">
          <mxGeometry x="20" y="75" width="140" height="40" as="geometry" />
        </mxCell>
        <mxCell id="I7w05RQVCzzFB9EwpAkA-59" style="edgeStyle=orthogonalEdgeStyle;rounded=0;orthogonalLoop=1;jettySize=auto;html=1;exitX=1;exitY=0.5;exitDx=0;exitDy=0;entryX=0;entryY=0.5;entryDx=0;entryDy=0;" edge="1" parent="I7w05RQVCzzFB9EwpAkA-44" source="I7w05RQVCzzFB9EwpAkA-56" target="I7w05RQVCzzFB9EwpAkA-58">
          <mxGeometry relative="1" as="geometry" />
        </mxCell>
        <mxCell id="I7w05RQVCzzFB9EwpAkA-56" value="CADASTRAR PRODUTO" style="rounded=1;whiteSpace=wrap;html=1;" vertex="1" parent="I7w05RQVCzzFB9EwpAkA-44">
          <mxGeometry x="20" y="215" width="140" height="40" as="geometry" />
        </mxCell>
        <mxCell id="I7w05RQVCzzFB9EwpAkA-57" value="CADASTRO PRODUTO" style="swimlane;whiteSpace=wrap;html=1;startSize=30;" vertex="1" parent="I7w05RQVCzzFB9EwpAkA-44">
          <mxGeometry x="200" y="140" width="180" height="160" as="geometry">
            <mxRectangle x="530" y="90" width="100" height="30" as="alternateBounds" />
          </mxGeometry>
        </mxCell>
        <mxCell id="I7w05RQVCzzFB9EwpAkA-58" value="CODIGO&lt;br&gt;CODIGO TIPO&lt;br&gt;DESCRICAO GENERICA&lt;br&gt;DESCRICAO ESPECIFICA&lt;br&gt;ESTOQUE MINIMO&lt;br&gt;ESTOQUE MAXIMO&lt;br&gt;QUANTIDADE ESTOQUE" style="text;html=1;strokeColor=none;fillColor=none;align=center;verticalAlign=middle;whiteSpace=wrap;rounded=0;" vertex="1" parent="I7w05RQVCzzFB9EwpAkA-57">
          <mxGeometry y="30" width="180" height="130" as="geometry" />
        </mxCell>
        <mxCell id="I7w05RQVCzzFB9EwpAkA-63" style="edgeStyle=orthogonalEdgeStyle;rounded=0;orthogonalLoop=1;jettySize=auto;html=1;exitX=1;exitY=0.5;exitDx=0;exitDy=0;entryX=0;entryY=0.5;entryDx=0;entryDy=0;" edge="1" parent="I7w05RQVCzzFB9EwpAkA-44" source="I7w05RQVCzzFB9EwpAkA-60" target="I7w05RQVCzzFB9EwpAkA-62">
          <mxGeometry relative="1" as="geometry" />
        </mxCell>
        <mxCell id="I7w05RQVCzzFB9EwpAkA-60" value="ALTERAR QUANTIDADE ESTOQUE" style="rounded=1;whiteSpace=wrap;html=1;" vertex="1" parent="I7w05RQVCzzFB9EwpAkA-44">
          <mxGeometry x="20" y="355" width="140" height="40" as="geometry" />
        </mxCell>
        <mxCell id="I7w05RQVCzzFB9EwpAkA-61" value="ALTERACAO QUANTIDADE ESTOQUE" style="swimlane;whiteSpace=wrap;html=1;startSize=30;" vertex="1" parent="I7w05RQVCzzFB9EwpAkA-44">
          <mxGeometry x="200" y="320" width="180" height="80" as="geometry">
            <mxRectangle x="530" y="90" width="100" height="30" as="alternateBounds" />
          </mxGeometry>
        </mxCell>
        <mxCell id="I7w05RQVCzzFB9EwpAkA-62" value="CODIGO&lt;br&gt;QUANTIDADE ESTOQUE" style="text;html=1;strokeColor=none;fillColor=none;align=center;verticalAlign=middle;whiteSpace=wrap;rounded=0;" vertex="1" parent="I7w05RQVCzzFB9EwpAkA-61">
          <mxGeometry y="30" width="180" height="50" as="geometry" />
        </mxCell>
        <mxCell id="I7w05RQVCzzFB9EwpAkA-70" value="LISTA TODOS PRODUTOS" style="rounded=1;whiteSpace=wrap;html=1;" vertex="1" parent="I7w05RQVCzzFB9EwpAkA-44">
          <mxGeometry x="20" y="430" width="360" height="20" as="geometry" />
        </mxCell>
        <mxCell id="I7w05RQVCzzFB9EwpAkA-45" value="BACKEND" style="swimlane;whiteSpace=wrap;html=1;" vertex="1" parent="1">
          <mxGeometry x="460" y="340" width="470" height="470" as="geometry" />
        </mxCell>
        <mxCell id="I7w05RQVCzzFB9EwpAkA-64" value="CADASTRO TIPO PRODUTO" style="swimlane;whiteSpace=wrap;html=1;startSize=30;container=0;" vertex="1" parent="I7w05RQVCzzFB9EwpAkA-45">
          <mxGeometry x="20" y="50" width="180" height="80" as="geometry" />
        </mxCell>
        <mxCell id="I7w05RQVCzzFB9EwpAkA-65" value="CODIGO&lt;br&gt;DESCRICAO" style="text;html=1;strokeColor=none;fillColor=none;align=center;verticalAlign=middle;whiteSpace=wrap;rounded=0;container=0;" vertex="1" parent="I7w05RQVCzzFB9EwpAkA-64">
          <mxGeometry y="30" width="180" height="50" as="geometry" />
        </mxCell>
        <mxCell id="I7w05RQVCzzFB9EwpAkA-66" value="CADASTRO PRODUTO" style="swimlane;whiteSpace=wrap;html=1;startSize=30;" vertex="1" parent="I7w05RQVCzzFB9EwpAkA-45">
          <mxGeometry x="20" y="150" width="180" height="160" as="geometry">
            <mxRectangle x="530" y="90" width="100" height="30" as="alternateBounds" />
          </mxGeometry>
        </mxCell>
        <mxCell id="I7w05RQVCzzFB9EwpAkA-67" value="CODIGO&lt;br&gt;CODIGO TIPO&lt;br&gt;DESCRICAO GENERICA&lt;br&gt;DESCRICAO ESPECIFICA&lt;br&gt;ESTOQUE MINIMO&lt;br&gt;ESTOQUE MAXIMO&lt;br&gt;QUANTIDADE ESTOQUE" style="text;html=1;strokeColor=none;fillColor=none;align=center;verticalAlign=middle;whiteSpace=wrap;rounded=0;" vertex="1" parent="I7w05RQVCzzFB9EwpAkA-66">
          <mxGeometry y="30" width="180" height="130" as="geometry" />
        </mxCell>
        <mxCell id="I7w05RQVCzzFB9EwpAkA-68" value="CONSULTA PRODUTO" style="swimlane;whiteSpace=wrap;html=1;startSize=30;" vertex="1" parent="I7w05RQVCzzFB9EwpAkA-45">
          <mxGeometry x="270" y="300" width="180" height="150" as="geometry">
            <mxRectangle x="530" y="90" width="100" height="30" as="alternateBounds" />
          </mxGeometry>
        </mxCell>
        <mxCell id="I7w05RQVCzzFB9EwpAkA-69" value="CODIGO&lt;br&gt;TIPO&lt;br&gt;DESCRICAO GENERICA&lt;br&gt;DESCRICAO ESPECIFICA&lt;br&gt;ESTOQUE MINIMO&lt;br&gt;ESTOQUE MAXIMO&lt;br&gt;QUANTIDADE ESTOQUE" style="text;html=1;strokeColor=none;fillColor=none;align=center;verticalAlign=middle;whiteSpace=wrap;rounded=0;" vertex="1" parent="I7w05RQVCzzFB9EwpAkA-68">
          <mxGeometry y="30" width="180" height="120" as="geometry" />
        </mxCell>
        <mxCell id="I7w05RQVCzzFB9EwpAkA-74" value="ALTERACAO QUANTIDADE ESTOQUE" style="swimlane;whiteSpace=wrap;html=1;startSize=30;" vertex="1" parent="I7w05RQVCzzFB9EwpAkA-45">
          <mxGeometry x="270" y="200" width="180" height="80" as="geometry">
            <mxRectangle x="530" y="90" width="100" height="30" as="alternateBounds" />
          </mxGeometry>
        </mxCell>
        <mxCell id="I7w05RQVCzzFB9EwpAkA-75" value="CODIGO&lt;br&gt;QUANTIDADE ESTOQUE" style="text;html=1;strokeColor=none;fillColor=none;align=center;verticalAlign=middle;whiteSpace=wrap;rounded=0;" vertex="1" parent="I7w05RQVCzzFB9EwpAkA-74">
          <mxGeometry y="30" width="180" height="50" as="geometry" />
        </mxCell>
        <mxCell id="I7w05RQVCzzFB9EwpAkA-46" value="DATABASE" style="swimlane;whiteSpace=wrap;html=1;" vertex="1" parent="1">
          <mxGeometry x="950" y="495" width="200" height="200" as="geometry" />
        </mxCell>
        <mxCell id="I7w05RQVCzzFB9EwpAkA-47" value="TB_PRODUTOS" style="shape=cylinder3;whiteSpace=wrap;html=1;boundedLbl=1;backgroundOutline=1;size=15;" vertex="1" parent="I7w05RQVCzzFB9EwpAkA-46">
          <mxGeometry x="70" y="60" width="60" height="80" as="geometry" />
        </mxCell>
        <mxCell id="I7w05RQVCzzFB9EwpAkA-71" style="edgeStyle=orthogonalEdgeStyle;rounded=0;orthogonalLoop=1;jettySize=auto;html=1;exitX=1;exitY=0.5;exitDx=0;exitDy=0;entryX=0;entryY=0.5;entryDx=0;entryDy=0;" edge="1" parent="1" source="I7w05RQVCzzFB9EwpAkA-53" target="I7w05RQVCzzFB9EwpAkA-65">
          <mxGeometry relative="1" as="geometry" />
        </mxCell>
        <mxCell id="I7w05RQVCzzFB9EwpAkA-72" style="edgeStyle=orthogonalEdgeStyle;rounded=0;orthogonalLoop=1;jettySize=auto;html=1;exitX=1;exitY=0.5;exitDx=0;exitDy=0;entryX=0;entryY=0.5;entryDx=0;entryDy=0;" edge="1" parent="1" source="I7w05RQVCzzFB9EwpAkA-58" target="I7w05RQVCzzFB9EwpAkA-67">
          <mxGeometry relative="1" as="geometry" />
        </mxCell>
        <mxCell id="I7w05RQVCzzFB9EwpAkA-76" style="edgeStyle=orthogonalEdgeStyle;rounded=0;orthogonalLoop=1;jettySize=auto;html=1;exitX=1;exitY=0.5;exitDx=0;exitDy=0;entryX=0;entryY=0.5;entryDx=0;entryDy=0;" edge="1" parent="1" source="I7w05RQVCzzFB9EwpAkA-62" target="I7w05RQVCzzFB9EwpAkA-75">
          <mxGeometry relative="1" as="geometry">
            <Array as="points">
              <mxPoint x="680" y="715" />
              <mxPoint x="680" y="595" />
            </Array>
          </mxGeometry>
        </mxCell>
        <mxCell id="I7w05RQVCzzFB9EwpAkA-77" style="edgeStyle=orthogonalEdgeStyle;rounded=0;orthogonalLoop=1;jettySize=auto;html=1;exitX=1;exitY=0.5;exitDx=0;exitDy=0;entryX=0;entryY=0.5;entryDx=0;entryDy=0;" edge="1" parent="1" source="I7w05RQVCzzFB9EwpAkA-70" target="I7w05RQVCzzFB9EwpAkA-69">
          <mxGeometry relative="1" as="geometry" />
        </mxCell>
        <mxCell id="I7w05RQVCzzFB9EwpAkA-80" style="edgeStyle=orthogonalEdgeStyle;rounded=0;orthogonalLoop=1;jettySize=auto;html=1;exitX=1;exitY=0.5;exitDx=0;exitDy=0;entryX=0;entryY=0.5;entryDx=0;entryDy=0;" edge="1" parent="1" source="I7w05RQVCzzFB9EwpAkA-75" target="I7w05RQVCzzFB9EwpAkA-46">
          <mxGeometry relative="1" as="geometry" />
        </mxCell>
        <mxCell id="I7w05RQVCzzFB9EwpAkA-81" style="edgeStyle=orthogonalEdgeStyle;rounded=0;orthogonalLoop=1;jettySize=auto;html=1;exitX=1;exitY=0.5;exitDx=0;exitDy=0;entryX=0;entryY=0.5;entryDx=0;entryDy=0;" edge="1" parent="1" source="I7w05RQVCzzFB9EwpAkA-65" target="I7w05RQVCzzFB9EwpAkA-46">
          <mxGeometry relative="1" as="geometry">
            <Array as="points">
              <mxPoint x="920" y="445" />
              <mxPoint x="920" y="595" />
            </Array>
          </mxGeometry>
        </mxCell>
        <mxCell id="I7w05RQVCzzFB9EwpAkA-82" style="edgeStyle=orthogonalEdgeStyle;rounded=0;orthogonalLoop=1;jettySize=auto;html=1;exitX=1;exitY=0.5;exitDx=0;exitDy=0;entryX=0;entryY=0.5;entryDx=0;entryDy=0;" edge="1" parent="1" source="I7w05RQVCzzFB9EwpAkA-67" target="I7w05RQVCzzFB9EwpAkA-46">
          <mxGeometry relative="1" as="geometry">
            <Array as="points">
              <mxPoint x="710" y="585" />
              <mxPoint x="710" y="520" />
              <mxPoint x="940" y="520" />
              <mxPoint x="940" y="595" />
            </Array>
          </mxGeometry>
        </mxCell>
        <mxCell id="I7w05RQVCzzFB9EwpAkA-83" style="edgeStyle=orthogonalEdgeStyle;rounded=0;orthogonalLoop=1;jettySize=auto;html=1;exitX=1;exitY=0.5;exitDx=0;exitDy=0;entryX=0;entryY=0.5;entryDx=0;entryDy=0;" edge="1" parent="1" source="I7w05RQVCzzFB9EwpAkA-69" target="I7w05RQVCzzFB9EwpAkA-46">
          <mxGeometry relative="1" as="geometry">
            <Array as="points">
              <mxPoint x="920" y="730" />
              <mxPoint x="920" y="595" />
            </Array>
          </mxGeometry>
        </mxCell>
      </root>
    </mxGraphModel>
  </diagram>
</mxfile>
